<?xml version="1.0"?>
<svg xmlns="http://www.w3.org/2000/svg" viewBox="0 0 512 512" width="512" height="512"><g id="outline"><path d="M72,297.48633V488a8.00008,8.00008,0,0,0,8,8h32a7.9992,7.9992,0,0,0,7.76074-6.05957L138.24585,416h75.5083l18.48511,73.94043A7.9992,7.9992,0,0,0,240,496h32a8.00008,8.00008,0,0,0,8-8V297.52112a159.4205,159.4205,0,0,0,50.40137-79.421l-15.43946-4.2002A144.25816,144.25816,0,0,1,176,320C96.59766,320,32,255.40186,32,176S96.59766,32,176,32A144.02868,144.02868,0,0,1,318.00073,152H293.58936a119.92032,119.92032,0,1,0-5.47217,66.85791l-14.94336-5.71582A103.98748,103.98748,0,1,1,277.21582,152H252.32666a80.00313,80.00313,0,1,0-9.80322,68.4502l-13.29492-8.9004A64.00348,64.00348,0,1,1,176,112a63.27867,63.27867,0,0,1,40.2002,14.19775A64.425,64.425,0,0,1,235.333,152H208l-.01636.001A39.9943,39.9943,0,1,0,176,216V200a24,24,0,1,1,16.64551-41.26709l-20.22363,10.11182a8.00009,8.00009,0,0,0,0,14.31054l32,16A7.99934,7.99934,0,0,0,208,200H364.686l37.65673,37.65674A8.00076,8.00076,0,0,0,408,240h80a8.00038,8.00038,0,0,0,5.65723-13.65674L456,188.686V163.314l37.65723-37.65722A8.00038,8.00038,0,0,0,488,112H408a8.00076,8.00076,0,0,0-5.65723,2.34326L364.686,152H334.20947A160.03717,160.03717,0,0,0,176,16C87.77539,16,16,87.77588,16,176A159.69316,159.69316,0,0,0,72,297.48633ZM105.75391,480H88V309.55664a160.08252,160.08252,0,0,0,16,9.30042V344h16V325.87817a158.562,158.562,0,0,0,22.63184,6.61158Zm36.49194-80,4-16h59.5083l4,16ZM264,480H246.24609L209.364,332.4729A159.50558,159.50558,0,0,0,232,325.84253V344h16V318.82812a160.89513,160.89513,0,0,0,16-9.27563ZM193.51221,335.03223,201.75415,368h-51.5083l8.24072-32.96265a159.35935,159.35935,0,0,0,35.02564-.00512ZM193.88867,176l16-8H440v16H209.88867Zm193.42505,24H404.686l24,24H411.31348ZM451.314,224l-24-24H444.686l24.00048,24ZM444.686,152H427.314l24-24h17.37256Zm-33.37256-24H428.686l-24,24H387.31372Z"/><rect x="104" y="360" width="16" height="16"/><rect x="232" y="360" width="16" height="16"/></g></svg>
