<svg height="512" viewBox="0 0 60 60" width="512" xmlns="http://www.w3.org/2000/svg"><g id="Page-1" fill="none" fill-rule="evenodd"><g id="030---Messy-Books" fill="rgb(0,0,0)" fill-rule="nonzero"><path id="Shape" d="m23.612 7.465 22.651 3.994c.0578023.0099543.1163468.0149724.175.015.518612-.000287.9509435-.3969974.9957134-.9136734.04477-.5166761-.3128805-.98183829-.8237134-1.0713266l-22.65-3.989c-.5440005-.09609753-1.0629024.26699953-1.159.811-.0960975.54400047.2669995 1.06290244.811 1.159z"/><path id="Shape" d="m27.03 11.114c-.5363041-.080394-1.0389518.2813269-1.1330712.8153932-.0941194.5340664.2545939 1.045824.7860712 1.1536068l14.772 2.605c.0577137.0107287.1162976.0160849.175.016.5188038.0002315.951625-.3963308.9966698-.9131754.0450449-.5168446-.312648-.982303-.8236698-1.0718246z"/><path id="Shape" d="m20.776 29.3 20.682 3.647c.1145368.020357.2306689.0303973.347.03.9697546-.0007231 1.7992629-.6970381 1.968-1.652l1.737-9.849c.1912593-1.0873636-.5347624-2.1240258-1.622-2.316l-20.68-3.643c-1.0873636-.1912593-2.1240258.5347624-2.316 1.622l-1.737 9.847c-.1900728 1.0863328.535092 2.1215156 1.621 2.314zm2.084-11.813 20.682 3.646-1.735 9.848-20.683-3.646z"/><path id="Shape" d="m5.761 53.453c.79970693 4.310621 4.9198971 7.1745523 9.239 6.422l31.518-5.56c.9453032-.1682515 1.7518286-.7812405 2.167-1.647 2.9015503-.8391214 5.077082-3.2498353 5.615-6.222 0-.02.018-.037.021-.057l5.558-31.515c.3766285-2.1309384-.1260717-4.3235569-1.393404-6.0775855-1.2673323-1.75402862-3.1911799-2.91983025-5.332596-3.2314145l-31.279-5.515c-.7788874-.14204789-1.5821455.03605331-2.228.494-.6613381.45038347-1.1111154 1.15031788-1.246 1.939l-1.467 8.317-10.025 1.765c-4.02614553.642156-6.95166348 4.170578-6.837 8.246.01379402.3565599.05221894.7117398.115 1.063l5.549 31.509c.005.026.02.046.026.07zm8.9 4.452c-1.7004192.2957655-3.4459746-.1529147-4.793-1.232-1.35762496-1.078069-2.17745052-2.6947138-2.245-4.427-.06515631-2.6818061 1.64063178-5.0873212 4.193-5.913.444644.5179626 1.0541935.866882 1.726.988l1.768.312-2.378.422c-1.1817821.2055625-2.2089301.9306341-2.7983359 1.9753665-.58940578 1.0447324-.67884433 2.2988307-.2436641 3.4166335.6205601 1.5492516 2.1312474 2.556244 3.8 2.533.2500824.0000374.4996927-.0217115.746-.065l23.912-4.215 5.752 1.011zm17.934-7.224-18.5 3.264c-.9648576.1912962-1.9335592-.3111165-2.333-1.21-.2227678-.5602081-.180947-1.1910141.1138267-1.7169106s.811045-.8907651 1.4051733-.9930894l7.774-1.379zm17.6-1c-1.3473202 1.0799038-3.0945714 1.5270106-4.795 1.227l-31.514-5.556c-.513403-.0867937-.8742906-.5530262-.8296233-1.0717946.0446674-.5187684.4799403-.9164494 1.0006233-.9142054.0586812.0003674.1172251.00572.175.016l31.4 5.536c1.9057686.3672001 3.8055964-.6626757 4.538-2.46.4381252-1.1172658.3514576-2.3722117-.2360944-3.4186433s-1.6138978-1.7737656-2.7959056-1.9813567l-31.516-5.558c-.5432124-.0964671-.9056696-.6146466-.81-1.158.0960023-.5431572.6136695-.9060163 1.157-.811l31.273 5.514c3.0421721.4714538 5.2653852 3.1222079 5.2 6.2-.0670083 1.735753-.88931 3.3555155-2.251 4.434zm-3.4-6.649c.5913131.1060038 1.1036586.4721905 1.3954035.9973314.2917449.5251408.3319851 1.1536083.1095965 1.7116686-.3981424.8948001-1.3619474 1.3955804-2.323 1.207l-30.413-5.362.7-3.939zm-26.428-40.201c.0468628-.26538523.2009431-.49976089.426-.648.2113824-.15313133.4766426-.21211823.733-.163l29.547 5.21-.907 5.136c-.0462167.2612467.0132745.5301517.1653782.7475231s.3843519.3653911.6456218.4114769c.0574714.0099123.1156801.0149303.174.015.4848773-.0003616.8996315-.348519.984-.826l.9-5.116c2.9290865.56263345 5.0236826 3.1581572 4.955 6.14-.0124582.2645149-.0411791.5280126-.086.789l-4.645 26.364c-1.2180614-1.9460055-3.1826333-3.3056208-5.433-3.76l3.248-18.438c.0733334-.3566797-.0530134-.7250282-.3298376-.9616007-.2768243-.2365725-.6603628-.3039694-1.0012555-.1759444-.3408926.128025-.5852478.4312324-.6379069.7915451l-3.246 18.426-29.543-5.209c-.3365631-.0555466-.6801165-.0535177-1.016.006zm-18.3 17.9c-.07575915-3.0761594 2.14395283-5.7303955 5.185-6.2l9.309-1.643-3.719 21.112c-.2146849 1.2481393.3775582 2.4966516 1.48 3.12l-.758 4.3c-1.255469.1976651-2.2449076 1.1742277-2.459 2.427-.0351229.2030149-.0495302.4090728-.043.615-1.76687288.6277912-3.26910996 1.8353615-4.262 3.426l-4.644-26.351c-.04656589-.266143-.07562825-.5350534-.087-.805z"/></g></g></svg>