<svg height="512pt" viewBox="0 -34 512.03991 512" width="512pt" xmlns="http://www.w3.org/2000/svg"><path d="m446.769531 20.515625c-29.347656-18.847656-65.070312-25.035156-99.046875-17.148437-40.683594 9.574218-74.582031 37.550781-91.699218 75.679687-17.117188-38.128906-51.023438-66.109375-91.707032-75.679687-33.984375-7.867188-69.703125-1.664063-99.039062 17.203124-31.15625 19.902344-52.953125 51.554688-60.433594 87.761719-29.335938 136.902344 79.597656 247.546875 191.328125 305.488281l55.925781 29.011719c2.460938 1.273438 5.390625 1.273438 7.851563 0l55.925781-29.011719c111.726562-57.917968 220.664062-168.585937 191.316406-305.496093-7.460937-36.226563-29.253906-67.894531-60.421875-87.808594zm-138.753906 378.15625-51.992187 26.957031-51.992188-26.957031c-106.148438-55.023437-209.820312-159.25-182.496094-286.761719 6.535156-31.734375 25.613282-59.480468 52.90625-76.9375 25.484375-16.414062 56.523438-21.816406 86.050782-14.976562 42.964843 10.308594 76.613281 43.683594 87.277343 86.5625.988281 3.746094 4.378907 6.359375 8.253907 6.359375s7.265624-2.613281 8.25-6.359375c10.671874-42.890625 44.339843-76.265625 87.324218-86.5625 29.511719-6.820313 60.527344-1.429688 86.007813 14.949218 27.296875 17.464844 46.375 45.222657 52.90625 76.964844 27.324219 127.511719-76.347657 231.738282-182.496094 286.761719zm0 0"/><path d="m152.847656 53.257812c4.5625.988282 9.070313-1.878906 10.117188-6.425781 1.046875-4.550781-1.757813-9.097656-6.296875-10.203125-7.035157-1.625-14.238281-2.449218-21.460938-2.457031-47.375 1.066406-87.671875 34.855469-96.980469 81.320313-.988281 4.609374 1.949219 9.148437 6.558594 10.132812 4.609375.988281 9.144532-1.945312 10.132813-6.554688 7.589843-38.617187 40.949219-66.800781 80.289062-67.832031 5.9375.007813 11.855469.6875 17.640625 2.019531zm0 0"/><path d="m130.523438 232.9375-8.535157 8.535156c-2.214843 2.140625-3.105469 5.3125-2.324219 8.296875s3.109376 5.3125 6.09375 6.09375c2.984376.78125 6.15625-.109375 8.296876-2.328125l8.535156-8.53125c3.234375-3.347656 3.1875-8.671875-.105469-11.960937-3.289063-3.292969-8.613281-3.339844-11.960937-.105469zm0 0"/><path d="m164.65625 232.9375-8.53125 8.535156c-2.21875 2.140625-3.109375 5.3125-2.328125 8.296875s3.109375 5.3125 6.09375 6.09375 6.15625-.109375 8.296875-2.328125l8.535156-8.53125c3.234375-3.347656 3.1875-8.671875-.105468-11.960937-3.289063-3.292969-8.613282-3.339844-11.960938-.105469zm0 0"/><path d="m381.523438 232.9375c-3.347657-3.234375-8.671876-3.1875-11.964844.105469-3.289063 3.289062-3.335938 8.613281-.101563 11.960937l8.53125 8.53125c3.351563 3.234375 8.671875 3.191406 11.964844-.101562 3.289063-3.292969 3.335937-8.613282.101563-11.960938zm0 0"/><path d="m347.390625 232.9375c-3.347656-3.234375-8.671875-3.1875-11.964844.105469-3.289062 3.289062-3.335937 8.613281-.101562 11.960937l8.53125 8.53125c3.347656 3.234375 8.671875 3.191406 11.964843-.101562 3.289063-3.292969 3.335938-8.613282.101563-11.960938zm0 0"/><path d="m51.222656 153.636719c0 4.714843-3.820312 8.535156-8.53125 8.535156-4.714844 0-8.535156-3.820313-8.535156-8.535156 0-4.710938 3.820312-8.53125 8.535156-8.53125 4.710938 0 8.53125 3.820312 8.53125 8.53125zm0 0"/><path d="m191.570312 180.132812-34.132812-17.066406c-4.21875-2.105468-9.34375-.394531-11.453125 3.824219-2.105469 4.21875-.394531 9.34375 3.824219 11.449219l18.867187 9.429687-18.867187 9.429688c-4.21875 2.105469-5.929688 7.234375-3.824219 11.453125 2.109375 4.21875 7.234375 5.929687 11.453125 3.820312l34.132812-17.066406c2.898438-1.441406 4.726563-4.398438 4.726563-7.636719 0-3.234375-1.828125-6.191406-4.726563-7.636719zm0 0"/><path d="m366.101562 166.890625c-1.007812-2.027344-2.785156-3.570313-4.933593-4.285156-2.148438-.71875-4.492188-.550781-6.515625.460937l-34.132813 17.066406c-2.898437 1.445313-4.730469 4.402344-4.730469 7.636719 0 3.238281 1.832032 6.195313 4.730469 7.636719l34.132813 17.066406c4.21875 2.109375 9.34375.398438 11.449218-3.820312 2.109376-4.21875.394532-9.347656-3.820312-11.453125l-18.910156-9.429688 18.867187-9.386719c2.042969-1.003906 3.601563-2.78125 4.328125-4.941406.726563-2.15625.558594-4.515625-.464844-6.550781zm0 0"/><path d="m290.15625 221.902344c-4.710938 0-8.535156 3.820312-8.535156 8.535156v8.53125c0 4.714844-3.820313 8.535156-8.53125 8.535156-4.714844 0-8.535156-3.820312-8.535156-8.535156v-8.53125c0-4.714844-3.820313-8.535156-8.53125-8.535156-4.714844 0-8.535157 3.820312-8.535157 8.535156v8.53125c0 4.714844-3.820312 8.535156-8.53125 8.535156-4.714843 0-8.535156-3.820312-8.535156-8.535156v-8.53125c0-4.714844-3.820313-8.535156-8.53125-8.535156-4.714844 0-8.535156 3.820312-8.535156 8.535156v8.53125c-.042969 10.117188 5.898437 19.304688 15.144531 23.410156 9.25 4.105469 20.046875 2.355469 27.523438-4.464844 7.472656 6.820313 18.273437 8.570313 27.519531 4.464844 9.25-4.105468 15.191406-13.292968 15.148437-23.410156v-8.53125c0-4.714844-3.824218-8.535156-8.535156-8.535156zm0 0"/></svg>